<?xml version="1.0" encoding="UTF-8" standalone="no"?>
<!DOCTYPE svg PUBLIC "-//W3C//DTD SVG 1.1//EN"
 "http://www.w3.org/Graphics/SVG/1.1/DTD/svg11.dtd">
<!-- Generated by graphviz version 2.43.0 (0) -->
<!-- Title: G Pages: 1 -->
<svg width="800pt" height="600pt"
 viewBox="0.00 0.00 800.00 600.00" xmlns="http://www.w3.org/2000/svg" xmlns:xlink="http://www.w3.org/1999/xlink">
<g id="graph0" class="graph" transform="scale(1 1) rotate(0) translate(4 596)">
<title>G</title>
<polygon fill="white" stroke="transparent" points="-4,4 -4,-596 796,-596 796,4 -4,4"/>
<!-- node_0 -->
<g id="node1" class="node">
<title>node_0</title>
<polygon fill="#4CAF50" stroke="black" points="72,-432 0,-432 0,-396 72,-396 72,-432"/>
<text text-anchor="middle" x="36" y="-410.3" font-family="Arial" font-size="10.00">Atom_g</text>
</g>
<!-- node_1 -->
<g id="node2" class="node">
<title>node_1</title>
<polygon fill="#4CAF50" stroke="black" points="162,-432 90,-432 90,-396 162,-396 162,-432"/>
<text text-anchor="middle" x="126" y="-410.3" font-family="Arial" font-size="10.00">Atom_f</text>
</g>
<!-- node_2 -->
<g id="node3" class="node">
<title>node_2</title>
<polygon fill="#4CAF50" stroke="black" points="72,-360 0,-360 0,-324 72,-324 72,-360"/>
<text text-anchor="middle" x="36" y="-338.3" font-family="Arial" font-size="10.00">Atom_fg</text>
</g>
<!-- node_2&#45;&gt;node_0 -->
<g id="edge1" class="edge">
<title>node_2&#45;&gt;node_0</title>
<path fill="none" stroke="black" d="M36,-360.3C36,-367.02 36,-375.02 36,-382.5"/>
<polygon fill="black" stroke="black" points="32.5,-382.59 36,-392.59 39.5,-382.59 32.5,-382.59"/>
</g>
<!-- node_3 -->
<g id="node4" class="node">
<title>node_3</title>
<polygon fill="#4CAF50" stroke="black" points="162,-360 90,-360 90,-324 162,-324 162,-360"/>
<text text-anchor="middle" x="126" y="-338.3" font-family="Arial" font-size="10.00">Atom_f&#39;</text>
</g>
<!-- node_4 -->
<g id="node5" class="node">
<title>node_4</title>
<ellipse fill="#2196F3" stroke="black" cx="216" cy="-342" rx="36" ry="18"/>
<text text-anchor="middle" x="216" y="-338.3" font-family="Arial" font-size="10.00">Atom_f&#39;&#39;</text>
</g>
<!-- node_5 -->
<g id="node6" class="node">
<title>node_5</title>
<ellipse fill="#2196F3" stroke="black" cx="306" cy="-342" rx="36" ry="18"/>
<text text-anchor="middle" x="306" y="-338.3" font-family="Arial" font-size="10.00">Atom_f&#39;&#39;&#39;</text>
</g>
<!-- node_6 -->
<g id="node7" class="node">
<title>node_6</title>
<polygon fill="#4CAF50" stroke="black" points="252,-288 180,-288 180,-252 252,-252 252,-288"/>
<text text-anchor="middle" x="216" y="-266.3" font-family="Arial" font-size="10.00">Atom_fib</text>
</g>
<!-- node_6&#45;&gt;node_6 -->
<g id="edge2" class="edge">
<title>node_6&#45;&gt;node_6</title>
<path fill="none" stroke="black" d="M252.02,-280.51C262.32,-279.77 270,-275.97 270,-270 270,-264.03 262.32,-260.23 252.02,-259.49"/>
<polygon fill="black" stroke="black" points="252.01,-255.99 242,-259.2 251.99,-262.99 252.01,-255.99"/>
</g>
<!-- node_7 -->
<g id="node8" class="node">
<title>node_7</title>
<polygon fill="#4CAF50" stroke="black" points="432,-288 360,-288 360,-252 432,-252 432,-288"/>
<text text-anchor="middle" x="396" y="-266.3" font-family="Arial" font-size="10.00">Atom_fibImperative</text>
</g>
<!-- node_8 -->
<g id="node9" class="node">
<title>node_8</title>
<ellipse fill="#2196F3" stroke="black" cx="306" cy="-180" rx="50" ry="18"/>
<text text-anchor="middle" x="306" y="-176.3" font-family="Arial" font-size="10.00">Atom_fib_spec</text>
</g>
<!-- node_8&#45;&gt;node_6 -->
<g id="edge3" class="edge">
<title>node_8&#45;&gt;node_6</title>
<path fill="none" stroke="black" d="M286.67,-196.83C274.21,-208.1 257.08,-223.99 242.92,-237.07"/>
<polygon fill="black" stroke="black" points="240.31,-234.73 235.4,-243.99 245.04,-239.87 240.31,-234.73"/>
</g>
<!-- node_8&#45;&gt;node_7 -->
<g id="edge4" class="edge">
<title>node_8&#45;&gt;node_7</title>
<path fill="none" stroke="black" d="M325.33,-196.83C337.79,-208.1 354.92,-223.99 369.08,-237.07"/>
<polygon fill="black" stroke="black" points="366.96,-239.87 376.6,-243.99 371.69,-234.73 366.96,-239.87"/>
</g>
<!-- node_9 -->
<g id="node10" class="node">
<title>node_9</title>
<polygon fill="#4CAF50" stroke="black" points="522,-288 450,-288 450,-252 522,-252 522,-288"/>
<text text-anchor="middle" x="486" y="-266.3" font-family="Arial" font-size="10.00">Atom_trivial</text>
</g>
<!-- node_10 -->
<g id="node11" class="node">
<title>node_10</title>
<polygon fill="#4CAF50" stroke="black" points="622,-288 550,-288 550,-252 622,-252 622,-288"/>
<text text-anchor="middle" x="586" y="-266.3" font-family="Arial" font-size="10.00">Atom_trivial_</text>
</g>
<!-- node_11 -->
<g id="node12" class="node">
<title>node_11</title>
<ellipse fill="#2196F3" stroke="black" cx="536" cy="-180" rx="58" ry="18"/>
<text text-anchor="middle" x="536" y="-176.3" font-family="Arial" font-size="10.00">Atom_trivial_eq</text>
</g>
<!-- node_11&#45;&gt;node_9 -->
<g id="edge5" class="edge">
<title>node_11&#45;&gt;node_9</title>
<path fill="none" stroke="black" d="M524.83,-197.89C518.62,-208.24 510.4,-221.95 503.35,-233.72"/>
<polygon fill="black" stroke="black" points="500.17,-232.25 498.3,-242.68 506.26,-235.69 500.17,-232.25"/>
</g>
<!-- node_11&#45;&gt;node_10 -->
<g id="edge6" class="edge">
<title>node_11&#45;&gt;node_10</title>
<path fill="none" stroke="black" d="M547.17,-197.89C553.38,-208.24 561.6,-221.95 568.65,-233.72"/>
<polygon fill="black" stroke="black" points="565.74,-235.69 573.7,-242.68 571.83,-232.25 565.74,-235.69"/>
</g>
<!-- node_12 -->
<g id="node13" class="node">
<title>node_12</title>
<polygon fill="#4CAF50" stroke="black" points="342,-108 270,-108 270,-72 342,-72 342,-108"/>
<text text-anchor="middle" x="306" y="-86.3" font-family="Arial" font-size="10.00">Atom_even</text>
</g>
<!-- node_13 -->
<g id="node14" class="node">
<title>node_13</title>
<polygon fill="#4CAF50" stroke="black" points="432,-108 360,-108 360,-72 432,-72 432,-108"/>
<text text-anchor="middle" x="396" y="-86.3" font-family="Arial" font-size="10.00">Atom_odd</text>
</g>
<!-- node_12&#45;&gt;node_13 -->
<g id="edge7" class="edge">
<title>node_12&#45;&gt;node_13</title>
<path fill="none" stroke="black" d="M342.15,-90C346.68,-90 351.35,-90 355.92,-90"/>
<polygon fill="black" stroke="black" points="356,-93.5 366,-90 356,-86.5 356,-93.5"/>
</g>
<!-- node_13&#45;&gt;node_12 -->
<g id="edge8" class="edge">
<title>node_13&#45;&gt;node_12</title>
<path fill="none" stroke="black" d="M359.85,-90C355.32,-90 350.65,-90 346.08,-90"/>
<polygon fill="black" stroke="black" points="346,-86.5 336,-90 346,-93.5 346,-86.5"/>
</g>
<!-- node_14 -->
<g id="node15" class="node">
<title>node_14</title>
<polygon fill="#4CAF50" stroke="black" points="162,-108 90,-108 90,-72 162,-72 162,-108"/>
<text text-anchor="middle" x="126" y="-86.3" font-family="Arial" font-size="10.00">Atom_sumUpTo</text>
</g>
<!-- node_14&#45;&gt;node_14 -->
<g id="edge9" class="edge">
<title>node_14&#45;&gt;node_14</title>
<path fill="none" stroke="black" d="M162.02,-100.51C172.32,-99.77 180,-95.97 180,-90 180,-84.03 172.32,-80.23 162.02,-79.49"/>
<polygon fill="black" stroke="black" points="162.01,-75.99 152,-79.2 161.99,-82.99 162.01,-75.99"/>
</g>
<!-- node_15 -->
<g id="node16" class="node">
<title>node_15</title>
<polygon fill="#4CAF50" stroke="black" points="252,-36 180,-36 180,0 252,0 252,-36"/>
<text text-anchor="middle" x="216" y="-14.3" font-family="Arial" font-size="10.00">Atom_fastSumUpTo</text>
</g>
<!-- node_16 -->
<g id="node17" class="node">
<title>node_16</title>
<ellipse fill="#2196F3" stroke="black" cx="126" cy="-18" rx="55" ry="18"/>
<text text-anchor="middle" x="126" y="-14.3" font-family="Arial" font-size="10.00">Atom_split_sum</text>
</g>
<!-- node_16&#45;&gt;node_14 -->
<g id="edge10" class="edge">
<title>node_16&#45;&gt;node_14</title>
<path fill="none" stroke="black" d="M126,-36.3C126,-43.55 126,-52.37 126,-60.58"/>
<polygon fill="black" stroke="black" points="122.5,-60.59 126,-70.59 129.5,-60.59 122.5,-60.59"/>
</g>
<!-- node_17 -->
<g id="node18" class="node">
<title>node_17</title>
<polygon fill="#4CAF50" stroke="black" points="702,-108 630,-108 630,-72 702,-72 702,-108"/>
<text text-anchor="middle" x="666" y="-86.3" font-family="Arial" font-size="10.00">Atom_Test.f</text>
</g>
<!-- node_18 -->
<g id="node19" class="node">
<title>node_18</title>
<polygon fill="#4CAF50" stroke="black" points="792,-108 720,-108 720,-72 792,-72 792,-108"/>
<text text-anchor="middle" x="756" y="-86.3" font-family="Arial" font-size="10.00">Atom_Test.g</text>
</g>
<!-- node_19 -->
<g id="node20" class="node">
<title>node_19</title>
<polygon fill="#4CAF50" stroke="black" points="792,-36 720,-36 720,0 792,0 792,-36"/>
<text text-anchor="middle" x="756" y="-14.3" font-family="Arial" font-size="10.00">Atom_Test.h</text>
</g>
<!-- node_19&#45;&gt;node_17 -->
<g id="edge11" class="edge">
<title>node_19&#45;&gt;node_17</title>
<path fill="none" stroke="black" d="M735.67,-36.3C725.21,-44.71 712.32,-54.97 700.8,-64.11"/>
<polygon fill="black" stroke="black" points="698.65,-61.36 693.02,-70.29 702.99,-66.85 698.65,-61.36"/>
</g>
<!-- node_19&#45;&gt;node_18 -->
<g id="edge12" class="edge">
<title>node_19&#45;&gt;node_18</title>
<path fill="none" stroke="black" d="M756,-36.3C756,-43.55 756,-52.37 756,-60.58"/>
<polygon fill="black" stroke="black" points="752.5,-60.59 756,-70.59 759.5,-60.59 752.5,-60.59"/>
</g>
</g>
</svg> 